<svg width="16" height="16" viewBox="0 0 16 16" fill="none" xmlns="http://www.w3.org/2000/svg">
<path d="M6.2993 7.04148C5.48249 6.86128 4.62928 6.95081 3.86766 7.29662C3.10605 7.64244 2.47711 8.2259 2.07521 8.95947C1.67331 9.69303 1.52011 10.5371 1.63861 11.3652C1.75712 12.1932 2.14092 12.9604 2.73244 13.5518C3.32397 14.1432 4.09131 14.5268 4.91935 14.6451C5.74739 14.7635 6.59146 14.6101 7.32494 14.208C8.05841 13.8059 8.64173 13.1769 8.98737 12.4152C9.33302 11.6535 9.42235 10.8002 9.24196 9.98348" stroke="white" stroke-linecap="round" stroke-linejoin="round"/>
<path d="M9.70162 14.5942C10.5184 14.7744 11.3716 14.6849 12.1333 14.3391C12.8949 13.9932 13.5238 13.4098 13.9257 12.6762C14.3276 11.9427 14.4808 11.0985 14.3623 10.2705C14.2438 9.44252 13.86 8.67527 13.2685 8.08388C12.677 7.49249 11.9096 7.10885 11.0816 6.99054C10.2535 6.87223 9.40946 7.02561 8.67598 7.42768C7.94251 7.82975 7.35919 8.45882 7.01355 9.22051C6.6679 9.9822 6.57857 10.8354 6.75896 11.6522" stroke="white" stroke-linecap="round" stroke-linejoin="round"/>
<path d="M9.47375 1.3125C9.20419 1.31306 8.94086 1.39363 8.71715 1.544C8.49343 1.69437 8.31939 1.90778 8.21708 2.15717C8.11445 1.90746 7.93997 1.69387 7.71576 1.54348C7.49155 1.3931 7.22772 1.31271 6.95775 1.3125C6.58362 1.34497 6.23565 1.51782 5.98373 1.79632C5.73182 2.07482 5.59464 2.43834 5.59975 2.81383C5.59975 4.4585 7.86641 5.79517 8.21841 5.79517C8.57041 5.79517 10.8364 4.46183 10.8364 2.81383C10.8414 2.4376 10.7036 2.07345 10.4507 1.79483C10.1978 1.51621 9.84871 1.34385 9.47375 1.3125V1.3125Z" stroke="white" stroke-linecap="round" stroke-linejoin="round"/>
</svg>
