<?xml version="1.0" encoding="utf-8"?>
<svg xmlns="http://www.w3.org/2000/svg" width="100" height="34" viewBox="0 0 100 34" fill="none">
<g clip-path="url(#clip0_4305_9389)">
<path d="M92.0366 -1.15703e-05H7.96787C7.66143 -1.15703e-05 7.35867 -1.15702e-05 7.05304 0.00168843C6.79719 0.00338843 6.54339 0.00832693 6.28509 0.0124834C5.72395 0.0192 5.16413 0.0694133 4.61049 0.162687C4.05763 0.257991 3.52209 0.437667 3.02198 0.695637C2.52248 0.95579 2.06607 1.29383 1.66931 1.6975C1.27048 2.10003 0.938012 2.5653 0.684708 3.07543C0.430706 3.58453 0.25458 4.13009 0.162413 4.69325C0.06937 5.2557 0.0193027 5.82463 0.0126604 6.39495C0.0049054 6.65556 0.00408644 6.91704 0 7.17768V26.8248C0.00408644 27.0887 0.0049054 27.3444 0.0126604 27.6084C0.0193047 28.1787 0.069372 28.7476 0.162413 29.31C0.254325 29.8735 0.430462 30.4194 0.684708 30.9287C0.937897 31.4372 1.27041 31.9006 1.66931 32.3008C2.06457 32.7063 2.52127 33.0446 3.02198 33.3027C3.52208 33.5614 4.05757 33.7422 4.61049 33.8389C5.16422 33.9315 5.72399 33.9817 6.28509 33.9892C6.54339 33.995 6.79719 33.9983 7.05304 33.9983C7.35866 34 7.66145 34 7.96787 34H92.0366C92.337 34 92.6422 34 92.9425 33.9983C93.1971 33.9983 93.4583 33.995 93.7129 33.9892C94.2729 33.9821 94.8317 33.9319 95.3842 33.8389C95.9389 33.7415 96.4764 33.5608 96.9789 33.3027C97.4791 33.0444 97.9354 32.7062 98.3303 32.3008C98.7282 31.899 99.0614 31.4359 99.3178 30.9287C99.5701 30.419 99.7446 29.8732 99.8351 29.31C99.9283 28.7475 99.9802 28.1788 99.9902 27.6084C99.9935 27.3444 99.9935 27.0887 99.9935 26.8248C100 26.516 100 26.2089 100 25.8951V8.1057C100 7.79442 100 7.48563 99.9935 7.17768C99.9935 6.91704 99.9935 6.65556 99.9902 6.39492C99.9802 5.82455 99.9283 5.25574 99.8351 4.69321C99.7443 4.13038 99.5699 3.58487 99.3178 3.07539C98.8019 2.05291 97.9839 1.22061 96.9789 0.695561C96.4763 0.438221 95.9389 0.258593 95.3842 0.16261C94.8318 0.0689258 94.273 0.018695 93.7129 0.0123644C93.4583 0.00821643 93.1971 0.00323543 92.9425 0.00157793C92.6422 -0.00012207 92.337 -0.00012207 92.0366 -0.00012207V-1.15703e-05Z" fill="#A6A6A6"/>
<path d="M7.05712 33.2563C6.8025 33.2563 6.55404 33.2529 6.30143 33.2472C5.77811 33.2402 5.25602 33.1939 4.73944 33.1085C4.25775 33.0242 3.79112 32.8672 3.35494 32.6428C2.92277 32.4203 2.52859 32.1285 2.18751 31.7787C1.84149 31.433 1.55342 31.032 1.3347 30.5917C1.11357 30.1485 0.960536 29.6734 0.880927 29.1831C0.794957 28.6562 0.748443 28.1234 0.741787 27.5893C0.736489 27.41 0.729553 26.8132 0.729553 26.8132V7.1777C0.729553 7.1777 0.736941 6.59 0.741829 6.41734C0.748202 5.88412 0.794445 5.35216 0.880158 4.82608C0.959914 4.33437 1.11307 3.85795 1.33431 3.41329C1.55223 2.97326 1.8387 2.57199 2.18264 2.22504C2.52618 1.87479 2.92162 1.58152 3.35453 1.35594C3.78971 1.13229 4.25545 0.976432 4.73617 0.893589C5.25445 0.80737 5.77835 0.760756 6.30348 0.754138L7.05753 0.743759H92.9384L93.7014 0.754554C94.2218 0.760843 94.7409 0.807042 95.2545 0.892756C95.74 0.976638 96.2106 1.13358 96.6508 1.35843C97.5181 1.81305 98.2237 2.5323 98.6689 3.41537C98.8867 3.85695 99.0374 4.32949 99.1162 4.81695C99.2029 5.34735 99.2515 5.88349 99.2614 6.42108C99.2638 6.6618 99.2638 6.92037 99.2638 7.1777C99.2704 7.49645 99.2704 7.79984 99.2704 8.10572V25.8951C99.2704 26.2039 99.2704 26.5052 99.2638 26.809C99.2638 27.0854 99.2638 27.3386 99.2606 27.5993C99.2508 28.1273 99.2031 28.6538 99.1178 29.1747C99.0398 29.6686 98.8876 30.1474 98.6665 30.5942C98.4462 31.0298 98.1598 31.4273 97.8178 31.7721C97.4764 32.1238 97.0815 32.4173 96.6484 32.6412C96.2094 32.8673 95.7395 33.0248 95.2545 33.1085C94.7379 33.1943 94.2158 33.2407 93.6924 33.2472C93.4476 33.2529 93.1914 33.2563 92.9425 33.2563L92.0366 33.258L7.05712 33.2563Z" fill="black"/>
<path d="M20.6987 16.748C20.7076 16.0594 20.8929 15.3843 21.2372 14.7853C21.5816 14.1864 22.0737 13.6832 22.668 13.3226C22.2905 12.7903 21.7924 12.3523 21.2135 12.0433C20.6345 11.7343 19.9905 11.5628 19.3327 11.5425C17.9294 11.3971 16.5689 12.3715 15.8538 12.3715C15.1249 12.3715 14.0239 11.5569 12.8383 11.581C12.0714 11.6055 11.3241 11.8256 10.669 12.22C10.0139 12.6144 9.47352 13.1696 9.10042 13.8315C7.48423 16.5939 8.68976 20.6538 10.2379 22.8867C11.0125 23.9801 11.9178 25.2015 13.1023 25.1582C14.2614 25.1107 14.6944 24.4285 16.0935 24.4285C17.4797 24.4285 17.8859 25.1582 19.0944 25.1307C20.3382 25.1107 21.1219 24.0324 21.8693 22.9286C22.4258 22.1495 22.8541 21.2885 23.1382 20.3773C22.4156 20.0756 21.7989 19.5705 21.3651 18.9251C20.9313 18.2798 20.6995 17.5226 20.6987 16.748Z" fill="white"/>
<path d="M18.4159 10.0739C19.0941 9.27023 19.4282 8.23719 19.3473 7.1942C18.3112 7.30163 17.3542 7.79049 16.6668 8.56337C16.3308 8.94094 16.0734 9.3802 15.9094 9.85604C15.7454 10.3319 15.678 10.8349 15.7111 11.3365C16.2293 11.3418 16.742 11.2309 17.2105 11.0122C17.679 10.7935 18.0912 10.4727 18.4159 10.0739Z" fill="white"/>
<path d="M35.3508 22.3902H31.3952L30.4453 25.1592H28.7699L32.5166 14.9144H34.2573L38.0039 25.1592H36.2999L35.3508 22.3902ZM31.8049 21.1124H34.9404L33.3947 16.6184H33.3514L31.8049 21.1124Z" fill="white"/>
<path d="M46.0954 21.425C46.0954 23.7461 44.837 25.2373 42.938 25.2373C42.4569 25.2622 41.9785 25.1528 41.5575 24.9217C41.1365 24.6906 40.7899 24.3471 40.5575 23.9306H40.5215V27.6302H38.9685V17.6899H40.4718V18.9322H40.5003C40.7435 18.5177 41.0959 18.176 41.5201 17.9435C41.9443 17.711 42.4245 17.5963 42.9094 17.6118C44.8296 17.6118 46.0954 19.1103 46.0954 21.425ZM44.4991 21.425C44.4991 19.9127 43.7075 18.9185 42.4997 18.9185C41.3131 18.9185 40.515 19.9337 40.515 21.425C40.515 22.9299 41.3131 23.9378 42.4997 23.9378C43.7075 23.9378 44.4991 22.9509 44.4991 21.425Z" fill="white"/>
<path d="M54.4227 21.425C54.4227 23.7461 53.1643 25.2373 51.2653 25.2373C50.7843 25.2622 50.3058 25.1528 49.8848 24.9217C49.4638 24.6906 49.1172 24.3471 48.8848 23.9305H48.8489V27.6301H47.2958V17.6899H48.7991V18.9322H48.8276C49.0708 18.5177 49.4232 18.176 49.8474 17.9435C50.2716 17.711 50.7518 17.5963 51.2367 17.6118C53.157 17.6118 54.4227 19.1103 54.4227 21.425ZM52.8265 21.425C52.8265 19.9127 52.0349 18.9185 50.8271 18.9185C49.6405 18.9185 48.8423 19.9337 48.8423 21.425C48.8423 22.9299 49.6405 23.9378 50.8271 23.9378C52.0349 23.9378 52.8265 22.9509 52.8265 21.425H52.8265Z" fill="white"/>
<path d="M59.9264 22.3047C60.0415 23.3207 61.0412 23.9877 62.4073 23.9877C63.7163 23.9877 64.6581 23.3206 64.6581 22.4046C64.6581 21.6094 64.0901 21.1333 62.7452 20.807L61.4003 20.4871C59.4947 20.0327 58.6101 19.1529 58.6101 17.7253C58.6101 15.9577 60.1704 14.7436 62.3861 14.7436C64.5789 14.7436 66.0822 15.9577 66.1328 17.7253H64.565C64.4712 16.7029 63.6151 16.0858 62.3641 16.0858C61.113 16.0858 60.2569 16.7102 60.2569 17.619C60.2569 18.3433 60.8037 18.7695 62.1413 19.0957L63.2846 19.3729C65.4138 19.87 66.2984 20.7143 66.2984 22.2128C66.2984 24.1295 64.7519 25.3299 62.2922 25.3299C59.9909 25.3299 58.4371 24.1577 58.3367 22.3047L59.9264 22.3047Z" fill="white"/>
<path d="M69.6501 15.9223V17.6899H71.0889V18.904H69.6501V23.0218C69.6501 23.6615 69.9382 23.9596 70.5707 23.9596C70.7415 23.9566 70.912 23.9448 71.0815 23.9241V25.131C70.7972 25.1834 70.5082 25.2072 70.2189 25.2019C68.6871 25.2019 68.0898 24.6339 68.0898 23.1853V18.904H66.9897V17.6899H68.0897V15.9223H69.6501Z" fill="white"/>
<path d="M71.9221 21.425C71.9221 19.0748 73.3241 17.5981 75.5105 17.5981C77.7041 17.5981 79.0996 19.0748 79.0996 21.425C79.0996 23.7815 77.7114 25.2518 75.5105 25.2518C73.3102 25.2518 71.9221 23.7815 71.9221 21.425ZM77.5172 21.425C77.5172 19.8128 76.7689 18.8613 75.5104 18.8613C74.252 18.8613 73.5045 19.8201 73.5045 21.425C73.5045 23.0435 74.252 23.9878 75.5104 23.9878C76.7689 23.9878 77.5172 23.0435 77.5172 21.425H77.5172Z" fill="white"/>
<path d="M80.38 17.6899H81.8612V18.9612H81.8971C81.9974 18.5642 82.233 18.2133 82.5644 17.9675C82.8958 17.7218 83.3028 17.5961 83.717 17.6117C83.896 17.6111 84.0745 17.6303 84.2491 17.6689V19.103C84.0232 19.0349 83.7875 19.0036 83.5513 19.0104C83.3257 19.0013 83.1008 19.0406 82.892 19.1255C82.6832 19.2104 82.4955 19.3389 82.3418 19.5021C82.188 19.6654 82.0719 19.8595 82.0013 20.0713C81.9308 20.283 81.9075 20.5074 81.933 20.7288V25.1592H80.38L80.38 17.6899Z" fill="white"/>
<path d="M91.4094 22.9654C91.2005 24.3213 89.8629 25.2518 88.1516 25.2518C85.9506 25.2518 84.5845 23.796 84.5845 21.4604C84.5845 19.1175 85.9579 17.5981 88.0863 17.5981C90.1796 17.5981 91.4959 19.0176 91.4959 21.2824V21.8076H86.1522V21.9003C86.1275 22.1752 86.1624 22.4521 86.2545 22.7127C86.3465 22.9732 86.4937 23.2115 86.6862 23.4116C86.8787 23.6117 87.1121 23.7691 87.371 23.8733C87.6298 23.9775 87.9082 24.0261 88.1875 24.016C88.5545 24.0499 88.9228 23.966 89.2376 23.7767C89.5524 23.5874 89.7969 23.3029 89.9348 22.9654L91.4094 22.9654ZM86.1595 20.7361H89.9421C89.956 20.489 89.9181 20.2416 89.8306 20.0096C89.7431 19.7776 89.608 19.566 89.4338 19.388C89.2595 19.21 89.0499 19.0694 88.818 18.9752C88.5861 18.881 88.337 18.8351 88.0863 18.8404C87.8334 18.8389 87.5827 18.8869 87.3487 18.9815C87.1147 19.0762 86.9019 19.2157 86.7228 19.3919C86.5437 19.5682 86.4017 19.7777 86.305 20.0084C86.2083 20.2391 86.1589 20.4864 86.1595 20.7361V20.7361Z" fill="white"/>
<path d="M31.6103 7.20307C31.9359 7.18 32.2626 7.22856 32.5669 7.34524C32.8712 7.46192 33.1454 7.64382 33.3699 7.87781C33.5943 8.1118 33.7634 8.39205 33.8648 8.69835C33.9663 9.00464 33.9976 9.32935 33.9566 9.64905C33.9566 11.2217 33.0956 12.1257 31.6103 12.1257H29.8092V7.20307H31.6103ZM30.5837 11.4295H31.5238C31.7565 11.4433 31.9893 11.4056 32.2053 11.3193C32.4214 11.233 32.6152 11.1002 32.7728 10.9306C32.9303 10.761 33.0475 10.5589 33.1159 10.3389C33.1843 10.119 33.2022 9.88672 33.1682 9.65908C33.1997 9.43234 33.18 9.20153 33.1106 8.98319C33.0411 8.76484 32.9236 8.56436 32.7664 8.39612C32.6093 8.22788 32.4164 8.09604 32.2015 8.01004C31.9867 7.92405 31.7553 7.88603 31.5238 7.89871H30.5837V11.4295Z" fill="white"/>
<path d="M34.8314 10.2666C34.8077 10.0224 34.836 9.77611 34.9144 9.5434C34.9929 9.31069 35.1197 9.09674 35.2868 8.91525C35.4539 8.73377 35.6575 8.58876 35.8847 8.48953C36.1119 8.39031 36.3575 8.33905 36.606 8.33905C36.8544 8.33905 37.1001 8.39031 37.3272 8.48953C37.5544 8.58876 37.7581 8.73377 37.9252 8.91525C38.0923 9.09674 38.2191 9.31069 38.2975 9.5434C38.3759 9.77611 38.4042 10.0224 38.3805 10.2666C38.4047 10.5109 38.3767 10.7576 38.2985 10.9907C38.2203 11.2238 38.0935 11.4381 37.9264 11.62C37.7593 11.8018 37.5555 11.9471 37.3281 12.0465C37.1006 12.146 36.8547 12.1974 36.606 12.1974C36.3573 12.1974 36.1113 12.146 35.8839 12.0465C35.6565 11.9471 35.4527 11.8018 35.2855 11.62C35.1184 11.4381 34.9917 11.2238 34.9135 10.9907C34.8352 10.7576 34.8073 10.5109 34.8314 10.2666ZM37.6167 10.2666C37.6167 9.4613 37.2503 8.99039 36.6072 8.99039C35.9617 8.99039 35.5985 9.4613 35.5985 10.2666C35.5985 11.0783 35.9617 11.5455 36.6072 11.5455C37.2503 11.5455 37.6167 11.075 37.6167 10.2666H37.6167Z" fill="white"/>
<path d="M43.0984 12.1256H42.328L41.5503 9.38958H41.4915L40.717 12.1256H39.954L38.9167 8.41071H39.67L40.3441 11.2454H40.3996L41.1732 8.41071H41.8857L42.6593 11.2454H42.7181L43.3889 8.41071H44.1315L43.0984 12.1256Z" fill="white"/>
<path d="M45.0039 8.41071H45.7188V9.00085H45.7743C45.8684 8.78889 46.0272 8.61121 46.2285 8.49257C46.4298 8.37393 46.6636 8.32025 46.8972 8.339C47.0803 8.32541 47.2642 8.35266 47.4351 8.41874C47.6061 8.48482 47.7598 8.58803 47.8849 8.72073C48.01 8.85342 48.1033 9.0122 48.1577 9.1853C48.2122 9.3584 48.2266 9.54139 48.1997 9.7207V12.1256H47.4571V9.90481C47.4571 9.30782 47.1943 9.01093 46.6451 9.01093C46.5207 9.00521 46.3966 9.0261 46.2813 9.07216C46.1659 9.11822 46.062 9.18836 45.9766 9.27778C45.8913 9.36719 45.8266 9.47377 45.7868 9.5902C45.7471 9.70664 45.7334 9.83017 45.7465 9.95234V12.1256H45.0039L45.0039 8.41071Z" fill="white"/>
<path d="M49.3831 6.96051H50.1257V12.1256H49.3831V6.96051Z" fill="white"/>
<path d="M51.158 10.2665C51.1344 10.0224 51.1627 9.77607 51.2411 9.54335C51.3196 9.31064 51.4464 9.09668 51.6135 8.91519C51.7806 8.7337 51.9843 8.58869 52.2115 8.48946C52.4387 8.39023 52.6844 8.33897 52.9328 8.33897C53.1813 8.33897 53.4269 8.39023 53.6541 8.48946C53.8813 8.58869 54.085 8.7337 54.2521 8.91519C54.4192 9.09668 54.5461 9.31064 54.6245 9.54335C54.7029 9.77607 54.7312 10.0224 54.7076 10.2665C54.7317 10.5109 54.7037 10.7576 54.6255 10.9907C54.5472 11.2238 54.4205 11.4381 54.2533 11.6199C54.0862 11.8018 53.8823 11.9471 53.6549 12.0465C53.4275 12.146 53.1815 12.1973 52.9328 12.1973C52.6841 12.1973 52.4381 12.146 52.2107 12.0465C51.9833 11.9471 51.7795 11.8018 51.6123 11.6199C51.4452 11.4381 51.3184 11.2238 51.2402 10.9907C51.1619 10.7576 51.134 10.5109 51.158 10.2665ZM53.9433 10.2665C53.9433 9.46129 53.5769 8.99039 52.9338 8.99039C52.2883 8.99039 51.9252 9.46129 51.9252 10.2666C51.9252 11.0783 52.2883 11.5455 52.9338 11.5455C53.5769 11.5455 53.9433 11.075 53.9433 10.2665H53.9433Z" fill="white"/>
<path d="M55.4894 11.075C55.4894 10.4063 55.9937 10.0208 56.889 9.96605L57.9083 9.90804V9.58739C57.9083 9.19503 57.6455 8.97348 57.1379 8.97348C56.7233 8.97348 56.436 9.12373 56.3536 9.38638H55.6346C55.7105 8.74829 56.3185 8.33902 57.1722 8.33902C58.1156 8.33902 58.6476 8.80267 58.6476 9.58739V12.1256H57.9327V11.6036H57.874C57.7547 11.7908 57.5873 11.9435 57.3887 12.046C57.1901 12.1484 56.9675 12.197 56.7437 12.1868C56.5857 12.2031 56.4261 12.1864 56.275 12.138C56.124 12.0896 55.9849 12.0104 55.8667 11.9057C55.7485 11.8009 55.6539 11.6729 55.5889 11.5298C55.5239 11.3868 55.49 11.2318 55.4894 11.075ZM57.9083 10.7576V10.447L56.9893 10.505C56.4711 10.5393 56.2361 10.7133 56.2361 11.0408C56.2361 11.3751 56.5299 11.5697 56.9339 11.5697C57.0523 11.5815 57.1718 11.5697 57.2855 11.535C57.3991 11.5003 57.5046 11.4433 57.5955 11.3676C57.6864 11.2918 57.7609 11.1988 57.8147 11.094C57.8684 10.9892 57.9002 10.8748 57.9083 10.7576Z" fill="white"/>
<path d="M59.6237 10.2666C59.6237 9.09271 60.235 8.34908 61.1857 8.34908C61.4209 8.33838 61.6543 8.39399 61.8586 8.5094C62.063 8.62481 62.2298 8.79526 62.3397 9.00083H62.3952V6.96051H63.1378V12.1256H62.4262V11.5387H62.3674C62.2491 11.7429 62.0764 11.9112 61.8681 12.0254C61.6598 12.1397 61.4238 12.1955 61.1857 12.1868C60.2284 12.1869 59.6237 11.4432 59.6237 10.2666ZM60.3909 10.2666C60.3909 11.0545 60.7671 11.5286 61.3963 11.5286C62.0222 11.5286 62.409 11.0477 62.409 10.2698C62.409 9.49554 62.0181 9.00771 61.3963 9.00771C60.7711 9.00771 60.3908 9.48506 60.3908 10.2666H60.3909Z" fill="white"/>
<path d="M66.2103 10.2666C66.1866 10.0224 66.2149 9.77611 66.2933 9.5434C66.3718 9.31069 66.4986 9.09674 66.6657 8.91525C66.8328 8.73377 67.0364 8.58876 67.2636 8.48953C67.4908 8.39031 67.7365 8.33905 67.9849 8.33905C68.2333 8.33905 68.479 8.39031 68.7062 8.48953C68.9333 8.58876 69.137 8.73377 69.3041 8.91525C69.4712 9.09674 69.598 9.31069 69.6764 9.5434C69.7548 9.77611 69.7831 10.0224 69.7595 10.2666C69.7836 10.5109 69.7556 10.7576 69.6774 10.9907C69.5992 11.2238 69.4724 11.4381 69.3053 11.62C69.1382 11.8018 68.9344 11.9471 68.707 12.0465C68.4796 12.146 68.2336 12.1974 67.9849 12.1974C67.7362 12.1974 67.4902 12.146 67.2628 12.0465C67.0354 11.9471 66.8316 11.8018 66.6644 11.62C66.4973 11.4381 66.3706 11.2238 66.2924 10.9907C66.2141 10.7576 66.1862 10.5109 66.2103 10.2666ZM68.9956 10.2666C68.9956 9.4613 68.6292 8.99039 67.9861 8.99039C67.3406 8.99039 66.9774 9.4613 66.9774 10.2666C66.9774 11.0783 67.3406 11.5455 67.9861 11.5455C68.6292 11.5455 68.9956 11.075 68.9956 10.2666Z" fill="white"/>
<path d="M70.7559 8.41071H71.4708V9.00085H71.5263C71.6205 8.78889 71.7792 8.61121 71.9805 8.49257C72.1818 8.37393 72.4156 8.32025 72.6493 8.339C72.8323 8.32541 73.0162 8.35266 73.1872 8.41874C73.3581 8.48482 73.5119 8.58803 73.637 8.72073C73.762 8.85342 73.8553 9.0122 73.9098 9.1853C73.9643 9.3584 73.9786 9.54139 73.9517 9.7207V12.1256H73.2091V9.90481C73.2091 9.30782 72.9463 9.01093 72.3971 9.01093C72.2728 9.00521 72.1487 9.0261 72.0333 9.07216C71.9179 9.11822 71.814 9.18836 71.7287 9.27778C71.6433 9.36719 71.5786 9.47377 71.5389 9.5902C71.4991 9.70664 71.4854 9.83017 71.4986 9.95234V12.1256H70.7559V8.41071Z" fill="white"/>
<path d="M78.1481 7.48581V8.42763H78.9634V9.04517H78.1481V10.9554C78.1481 11.3445 78.3105 11.5149 78.6802 11.5149C78.7748 11.5146 78.8694 11.509 78.9634 11.498V12.1087C78.83 12.1322 78.6949 12.1448 78.5594 12.1462C77.7335 12.1462 77.4046 11.8593 77.4046 11.1431V9.04514H76.8073V8.42759H77.4046V7.48581H78.1481Z" fill="white"/>
<path d="M79.9777 6.96051H80.7138V9.0077H80.7726C80.8713 8.79376 81.0344 8.61507 81.2398 8.49599C81.4451 8.3769 81.6826 8.32321 81.92 8.34222C82.1021 8.33244 82.2842 8.36246 82.4532 8.43014C82.6223 8.49783 82.7741 8.60151 82.8979 8.73379C83.0217 8.86606 83.1143 9.02368 83.1693 9.19539C83.2243 9.3671 83.2402 9.54867 83.2159 9.72715V12.1256H82.4725V9.90802C82.4725 9.31465 82.1926 9.01413 81.6679 9.01413C81.5402 9.0038 81.4118 9.02112 81.2917 9.06489C81.1715 9.10866 81.0625 9.17782 80.9723 9.26753C80.882 9.35723 80.8127 9.46533 80.7692 9.58424C80.7257 9.70315 80.709 9.83001 80.7204 9.95595V12.1256H79.9778L79.9777 6.96051Z" fill="white"/>
<path d="M87.5461 11.1226C87.4452 11.4621 87.2266 11.7558 86.9285 11.9522C86.6304 12.1487 86.2719 12.2355 85.9156 12.1973C85.6677 12.2038 85.4213 12.1569 85.1936 12.0599C84.9658 11.963 84.7622 11.8183 84.5968 11.6358C84.4314 11.4534 84.3083 11.2376 84.2358 11.0034C84.1634 10.7693 84.1434 10.5224 84.1773 10.2798C84.1443 10.0366 84.1646 9.78912 84.2369 9.55427C84.3092 9.31941 84.4317 9.10263 84.5962 8.9186C84.7607 8.73456 84.9634 8.58757 85.1904 8.48757C85.4175 8.38758 85.6637 8.33691 85.9123 8.33901C86.9593 8.33901 87.591 9.0452 87.591 10.2117V10.4676H84.9338V10.5087C84.9222 10.645 84.9395 10.7822 84.9848 10.9115C85.03 11.0408 85.1021 11.1594 85.1965 11.2596C85.2908 11.3598 85.4053 11.4394 85.5327 11.4934C85.66 11.5473 85.7974 11.5744 85.936 11.5729C86.1136 11.594 86.2936 11.5624 86.453 11.4822C86.6124 11.402 86.7441 11.2768 86.8312 11.1225L87.5461 11.1226ZM84.9338 9.92535H86.8345C86.8438 9.80067 86.8267 9.67544 86.7841 9.55769C86.7415 9.43995 86.6744 9.33231 86.5872 9.24168C86.5 9.15104 86.3945 9.07943 86.2776 9.03143C86.1606 8.98344 86.0348 8.96013 85.9082 8.96299C85.7798 8.9614 85.6523 8.98521 85.5333 9.03301C85.4143 9.08081 85.3063 9.15165 85.2155 9.24134C85.1246 9.33103 85.0529 9.43775 85.0046 9.55523C84.9562 9.6727 84.9321 9.79855 84.9338 9.92535H84.9338Z" fill="white"/>
</g>
<defs>
<clipPath id="clip0_4305_9389">
<rect width="100" height="34" fill="white"/>
</clipPath>
</defs>
</svg>