<svg width="62" height="62" viewBox="0 0 62 62" fill="none" xmlns="http://www.w3.org/2000/svg">
<path d="M19.8135 17.9459L22.581 21.3298L27.4235 15.4092" stroke="#1A2C40" stroke-width="1.90251" stroke-linecap="round" stroke-linejoin="round"/>
<path d="M20.6279 28.0923L23.3954 31.4763L28.238 25.5557" stroke="#1A2C40" stroke-width="1.90251" stroke-linecap="round" stroke-linejoin="round"/>
<path d="M19.5293 38.2392L22.2968 41.6231L27.1393 35.7025" stroke="#1A2C40" stroke-width="1.90251" stroke-linecap="round" stroke-linejoin="round"/>
<path d="M29.96 19.6377H40.1067" stroke="#1A2C40" stroke-width="1.90251" stroke-linecap="round" stroke-linejoin="round"/>
<path d="M30.7734 29.7843H40.9201" stroke="#1A2C40" stroke-width="1.90251" stroke-linecap="round" stroke-linejoin="round"/>
<path d="M29.6758 39.931H39.8225" stroke="#1A2C40" stroke-width="1.90251" stroke-linecap="round" stroke-linejoin="round"/>
<path d="M45.573 44.426C45.6592 44.0531 45.7404 43.6803 45.8267 43.3048C47.9803 31.8158 47.427 19.9831 44.2108 8.74517C44.0505 8.22404 43.7266 7.76843 43.2871 7.44585C42.8475 7.12327 42.3157 6.9509 41.7705 6.95427H14.0903C13.6992 6.95595 13.3138 7.04804 12.9642 7.22335C12.6146 7.39866 12.3102 7.65243 12.0749 7.96484C11.8396 8.27726 11.6798 8.63984 11.6078 9.02427C11.5359 9.4087 11.5538 9.80457 11.6602 10.1809C17.8852 31.9101 10.6582 43.5204 10.6582 51.3461C10.6592 51.8865 10.7753 52.4206 10.9988 52.9126C11.2223 53.4047 11.5481 53.8435 11.9544 54.1999C12.3607 54.5562 12.8383 54.8219 13.3553 54.9793C13.8724 55.1366 14.417 55.182 14.9529 55.1125C15.4889 55.0429 16.0039 54.86 16.4636 54.5759C16.9234 54.2917 17.3173 53.9129 17.6192 53.4647C17.9211 53.0164 18.124 52.509 18.2145 51.9761C18.305 51.4433 18.2809 50.8973 18.1439 50.3745C18.1025 50.2164 18.0978 50.0509 18.1302 49.8907C18.1627 49.7305 18.2313 49.5799 18.331 49.4504C18.4307 49.3208 18.5587 49.2158 18.7052 49.1434C18.8517 49.071 19.0129 49.0331 19.1764 49.0326H49.8701C50.0667 49.0328 50.2595 49.087 50.4273 49.1895C50.5951 49.292 50.7315 49.4387 50.8214 49.6135C51.1181 50.1937 51.2608 50.8403 51.2359 51.4915C51.211 52.1427 51.0193 52.7765 50.6792 53.3323C50.339 53.8881 49.8618 54.3473 49.2933 54.6657C48.7248 54.9842 48.084 55.1513 47.4324 55.1511H14.4556" stroke="#1A2C40" stroke-width="1.90251" stroke-linecap="round" stroke-linejoin="round"/>
</svg>
