<svg width="61" height="61" viewBox="0 0 61 61" fill="none" xmlns="http://www.w3.org/2000/svg">
<path d="M33.9916 14.5858C33.2296 14.5881 32.4855 14.8163 31.8533 15.2417C31.2211 15.667 30.7293 16.2704 30.4402 16.9754C30.1505 16.2708 29.6586 15.6678 29.0266 15.2425C28.3945 14.8173 27.6507 14.5887 26.8889 14.5858C25.8279 14.6743 24.8399 15.1616 24.1239 15.9496C23.408 16.7376 23.0173 17.7676 23.0306 18.8322C23.0306 23.487 29.4535 27.2692 30.4402 27.2692C31.427 27.2692 37.8499 23.487 37.8499 18.8322C37.8632 17.7676 37.4725 16.7376 36.7565 15.9496C36.0406 15.1616 35.0526 14.6743 33.9916 14.5858V14.5858Z" stroke="#1A2C40" stroke-width="1.90251" stroke-linecap="round" stroke-linejoin="round"/>
<path d="M46.9285 6.3418H13.9517C12.5507 6.3418 11.415 7.47751 11.415 8.87847V52.002C11.415 53.4029 12.5507 54.5386 13.9517 54.5386H46.9285C48.3295 54.5386 49.4652 53.4029 49.4652 52.002V8.87847C49.4652 7.47751 48.3295 6.3418 46.9285 6.3418Z" stroke="#1A2C40" stroke-width="1.90251" stroke-linecap="round" stroke-linejoin="round"/>
<path d="M40.5874 39.9526H20.2939" stroke="#1A2C40" stroke-width="1.90251" stroke-miterlimit="10" stroke-linecap="round"/>
<path d="M35.5129 45.0259H25.3662" stroke="#1A2C40" stroke-width="1.90251" stroke-miterlimit="10" stroke-linecap="round"/>
<path d="M36.782 34.8794H24.0986" stroke="#1A2C40" stroke-width="1.90251" stroke-miterlimit="10" stroke-linecap="round"/>
</svg>
