<svg width="32" height="32" viewBox="0 0 32 32" fill="none" xmlns="http://www.w3.org/2000/svg">
<path fill-rule="evenodd" clip-rule="evenodd" d="M21.7448 4.98388C21.7444 4.98427 21.744 4.98427 21.7436 4.98466C21.744 4.98427 21.7444 4.98427 21.7448 4.98388M26.4544 8.8097C26.4564 8.81246 26.4588 8.81522 26.4608 8.81758C26.4588 8.81522 26.4564 8.81246 26.4544 8.8097M8.73319 26.4969C8.75679 26.5009 8.79319 26.5048 8.84439 26.506C9.34359 26.519 9.86279 26.519 10.3868 26.5064C10.4492 26.5052 10.4904 26.4997 10.5156 26.495C10.5272 26.4717 10.5444 26.4316 10.5628 26.3693L10.5856 26.2945C10.7468 25.7545 10.9088 25.2146 11.056 24.6707C11.2844 23.8247 11.9956 23.3741 12.866 23.5222C14.3424 23.7747 15.8448 23.7751 17.3324 23.5226C18.208 23.3745 18.918 23.8294 19.1392 24.6809C19.2624 25.1512 19.4048 25.6151 19.556 26.1059L19.6476 26.4036C19.6608 26.4481 19.6736 26.478 19.6828 26.4969C19.7016 26.5001 19.7292 26.5036 19.7688 26.5048C20.2308 26.5182 20.7356 26.519 21.3076 26.5064C21.364 26.5056 21.4044 26.5017 21.4324 26.4977C21.4452 26.4698 21.4632 26.4261 21.4832 26.3622L21.7552 25.4974C22.0452 24.5785 22.3452 23.6282 22.6128 22.6936C22.8216 21.9634 23.276 21.4534 24.002 21.1347C25.6292 20.4187 27.1612 19.4605 28.686 18.2049C29.128 17.841 29.3088 17.4708 29.2904 16.9686C29.278 16.6209 29.2808 16.2727 29.2844 15.9249L29.288 14.9415C29.29 14.5453 29.2916 14.1491 29.2852 13.7537C29.2796 13.4374 29.0468 13.2074 28.7196 13.194C28.6392 13.1905 28.5588 13.1936 28.4788 13.196C28.284 13.1999 28.0412 13.207 27.778 13.1688C27.3984 13.1144 26.8696 12.9616 26.5132 12.5453C25.8364 11.7545 25.1924 10.9593 24.5996 10.1811C24.228 9.69507 24.1532 8.92904 24.426 8.4005C24.7984 7.6774 25.1672 7.04764 25.5528 6.47577C25.5588 6.46711 25.566 6.45608 25.5736 6.44426C24.5808 6.39779 23.666 6.58487 22.7944 7.02125C22.2936 7.27134 21.5964 7.26228 21.0996 6.99959C19.3452 6.06932 17.5732 5.58253 15.682 5.51006C12.9288 5.40648 10.5648 6.03073 8.44199 7.42061C6.36039 8.78292 5.07639 10.4969 4.51679 12.6611C4.22479 13.7899 3.57759 14.3295 2.59639 14.2802C2.40079 14.3653 2.29799 14.541 2.32399 14.7296C2.34559 14.8836 2.47039 15.0502 2.69439 15.0514C3.36119 15.0569 4.21439 15.3113 4.49399 16.4933C4.80319 17.7981 5.42359 18.9678 6.39119 20.0678C6.71319 20.4337 6.97239 20.8898 7.12159 21.3513C7.49479 22.5073 7.85239 23.6676 8.20959 24.8286C8.36959 25.3477 8.52959 25.8664 8.69039 26.3855C8.70719 26.4383 8.72199 26.4737 8.73319 26.4969M9.62041 28.8001C9.33801 28.8001 9.05921 28.7966 8.78601 28.7895C7.61681 28.7608 6.81681 28.1605 6.47241 27.0542C6.31041 26.5336 6.15001 26.0125 5.98961 25.4914C5.63521 24.3402 5.28081 23.1898 4.91081 22.0429C4.85641 21.8759 4.75441 21.6963 4.63761 21.5632C3.50641 20.2769 2.72401 18.8465 2.30921 17.3073C1.11561 17.1344 0.190813 16.2313 0.0256128 15.0384C-0.147987 13.7852 0.574413 12.593 1.78201 12.1401C1.90401 12.0944 2.08041 12.0282 2.29441 11.9991C3.00681 9.34415 4.64281 7.16382 7.15761 5.51794C9.66521 3.87599 12.56 3.10169 15.7712 3.22772C17.9128 3.30925 19.9988 3.86221 21.9768 4.87242C23.1648 4.32537 24.4432 4.08788 25.7848 4.16822C27.0176 4.24069 27.5804 4.9248 27.8352 5.48564C28.3056 6.52224 27.752 7.3442 27.4856 7.73923C27.2108 8.14686 26.9432 8.59269 26.6732 9.09485C27.138 9.69507 27.6332 10.3043 28.15 10.9124C28.2188 10.9168 28.32 10.9144 28.418 10.9124C28.55 10.9085 28.6832 10.9058 28.8156 10.9117C30.3788 10.9755 31.578 12.1802 31.6044 13.7143C31.6116 14.1266 31.61 14.539 31.6084 14.9513L31.6068 15.4885C31.6068 15.641 31.6052 15.793 31.604 15.9454C31.6012 16.2597 31.598 16.574 31.6092 16.8875C31.6532 18.1037 31.1704 19.1363 30.1744 19.9571C28.4832 21.3502 26.7736 22.4175 24.9476 23.2205C24.8976 23.2422 24.8712 23.2583 24.86 23.2658C24.8596 23.2705 24.8532 23.2867 24.8456 23.3131C24.5696 24.2768 24.2652 25.2421 23.9704 26.1756L23.7004 27.0345C23.3436 28.1755 22.5548 28.7659 21.356 28.7903C20.744 28.8033 20.2024 28.8025 19.6996 28.7875C18.5624 28.7541 17.7552 28.1412 17.4256 27.0617L17.3356 26.7683C17.2452 26.4745 17.1532 26.1756 17.0652 25.8719C15.7532 26.0373 14.4336 26.0369 13.1264 25.8711C13.0236 26.2283 12.9172 26.5844 12.8108 26.9404L12.788 27.0148C12.4496 28.1475 11.638 28.7616 10.4428 28.7903C10.1664 28.7966 9.89201 28.8001 9.62041 28.8001" fill="#1A2C40"/>
<path fill-rule="evenodd" clip-rule="evenodd" d="M22.0835 14.72C22.985 14.7172 23.6912 14.0006 23.6803 13.1003C23.6699 12.2214 22.9779 11.5296 22.0991 11.5201C21.1929 11.5111 20.4843 12.2081 20.4805 13.1127C20.4772 14.0192 21.1787 14.7229 22.0835 14.72" fill="#1A2C40"/>
<path fill-rule="evenodd" clip-rule="evenodd" d="M8.69526 12.16C8.45986 12.16 8.22369 12.0703 8.03162 11.8867C7.60682 11.4822 7.56005 10.7743 7.92695 10.3054C10.4489 7.08362 14.157 7.04004 14.3429 7.04004H14.3452C14.9061 7.04131 15.3605 7.54442 15.3597 8.1639C15.3585 8.78169 14.905 9.28184 14.3456 9.28311C14.3161 9.28311 11.3748 9.33092 9.46434 11.7716C9.26344 12.028 8.98012 12.16 8.69526 12.16" fill="#1A2C40"/>
</svg>
