<svg width="32" height="32" viewBox="0 0 32 32" fill="none" xmlns="http://www.w3.org/2000/svg">
<path d="M17.9361 9.90636C17.9361 13.7133 14.8237 16.8127 10.968 16.8127C7.11235 16.8127 4 13.7133 4 9.90636C4 6.09939 7.11235 3 10.968 3C14.8237 3 17.9361 6.09939 17.9361 9.90636Z" stroke="#1A2C40" stroke-width="2"/>
<mask id="path-2-inside-1_1892_230724" fill="white">
<path fill-rule="evenodd" clip-rule="evenodd" d="M23.5399 6.26633C22.6077 5.81645 21.5582 5.65918 20.5322 5.81661C19.5062 5.97403 18.5553 6.43816 17.8057 7.14444L16.4341 5.68881C17.4798 4.70351 18.8037 4.05841 20.2288 3.83975C21.654 3.62108 23.1124 3.83927 24.4092 4.46514C25.706 5.09101 26.7793 6.09475 27.4858 7.34217C28.1922 8.58959 28.4981 10.0213 28.3625 11.4458C28.2269 12.8704 27.6564 14.2199 26.7271 15.3141C25.7978 16.4082 24.554 17.1948 23.1621 17.5687C21.7701 17.9427 20.2963 17.8861 18.9377 17.4066C17.579 16.9271 16.4002 16.0474 15.5589 14.8853L17.1789 13.7125C17.7809 14.544 18.6261 15.1757 19.6033 15.5206C20.5807 15.8655 21.6415 15.9063 22.6432 15.6372C23.6448 15.3682 24.5373 14.8028 25.2027 14.0194C25.8679 13.2361 26.2749 12.272 26.3715 11.2563C26.4682 10.2407 26.2503 9.21913 25.7455 8.32775C25.2405 7.43616 24.4718 6.71613 23.5399 6.26633Z"/>
</mask>
<path fill-rule="evenodd" clip-rule="evenodd" d="M23.5399 6.26633C22.6077 5.81645 21.5582 5.65918 20.5322 5.81661C19.5062 5.97403 18.5553 6.43816 17.8057 7.14444L16.4341 5.68881C17.4798 4.70351 18.8037 4.05841 20.2288 3.83975C21.654 3.62108 23.1124 3.83927 24.4092 4.46514C25.706 5.09101 26.7793 6.09475 27.4858 7.34217C28.1922 8.58959 28.4981 10.0213 28.3625 11.4458C28.2269 12.8704 27.6564 14.2199 26.7271 15.3141C25.7978 16.4082 24.554 17.1948 23.1621 17.5687C21.7701 17.9427 20.2963 17.8861 18.9377 17.4066C17.579 16.9271 16.4002 16.0474 15.5589 14.8853L17.1789 13.7125C17.7809 14.544 18.6261 15.1757 19.6033 15.5206C20.5807 15.8655 21.6415 15.9063 22.6432 15.6372C23.6448 15.3682 24.5373 14.8028 25.2027 14.0194C25.8679 13.2361 26.2749 12.272 26.3715 11.2563C26.4682 10.2407 26.2503 9.21913 25.7455 8.32775C25.2405 7.43616 24.4718 6.71613 23.5399 6.26633Z" fill="#1A2C40"/>
<path d="M20.5322 5.81661L20.8355 7.79348L20.8355 7.79348L20.5322 5.81661ZM23.5399 6.26633L22.6706 8.06753L22.6706 8.06753L23.5399 6.26633ZM17.8057 7.14444L16.35 8.51598L17.7216 9.97162L19.1772 8.60007L17.8057 7.14444ZM16.4341 5.68881L15.0626 4.23317L13.607 5.60472L14.9785 7.06035L16.4341 5.68881ZM20.2288 3.83975L19.9255 1.86288L19.9255 1.86288L20.2288 3.83975ZM24.4092 4.46514L25.2785 2.66395L25.2785 2.66395L24.4092 4.46514ZM27.4858 7.34217L29.2261 6.35659L29.2261 6.35659L27.4858 7.34217ZM28.3625 11.4458L30.3535 11.6353L30.3535 11.6353L28.3625 11.4458ZM26.7271 15.3141L25.2027 14.0194L25.2027 14.0194L26.7271 15.3141ZM23.1621 17.5687L23.681 19.5003L23.681 19.5003L23.1621 17.5687ZM18.9377 17.4066L19.6033 15.5206L19.6033 15.5206L18.9377 17.4066ZM15.5589 14.8853L14.3861 13.2653L12.766 14.4381L13.9389 16.0582L15.5589 14.8853ZM17.1789 13.7125L18.7989 12.5397L17.6261 10.9196L16.0061 12.0925L17.1789 13.7125ZM19.6033 15.5206L20.2689 13.6346L20.2689 13.6346L19.6033 15.5206ZM22.6432 15.6372L22.1243 13.7057L22.1243 13.7057L22.6432 15.6372ZM25.2027 14.0194L23.6783 12.7246L23.6783 12.7246L25.2027 14.0194ZM26.3715 11.2563L24.3805 11.0668L24.3805 11.0668L26.3715 11.2563ZM25.7455 8.32775L27.4858 7.34217L27.4858 7.34217L25.7455 8.32775ZM20.8355 7.79348C21.4624 7.69729 22.103 7.79363 22.6706 8.06753L24.4092 4.46514C23.1124 3.83927 21.654 3.62108 20.2288 3.83975L20.8355 7.79348ZM19.1772 8.60007C19.6307 8.1728 20.2087 7.88965 20.8355 7.79348L20.2288 3.83975C18.8037 4.05842 17.4798 4.70352 16.4341 5.68881L19.1772 8.60007ZM14.9785 7.06035L16.35 8.51598L19.2613 5.77289L17.8898 4.31726L14.9785 7.06035ZM19.9255 1.86288C18.1012 2.1428 16.4044 2.96886 15.0626 4.23317L17.8057 7.14444C18.5553 6.43817 19.5062 5.97403 20.5322 5.81661L19.9255 1.86288ZM25.2785 2.66395C23.6171 1.86209 21.7497 1.58298 19.9255 1.86288L20.5322 5.81661C21.5582 5.65918 22.6077 5.81645 23.5399 6.26633L25.2785 2.66395ZM29.2261 6.35659C28.3181 4.75333 26.9401 3.46589 25.2785 2.66395L23.5399 6.26633C24.4718 6.71613 25.2405 7.43617 25.7455 8.32775L29.2261 6.35659ZM30.3535 11.6353C30.528 9.80184 30.1342 7.96006 29.2261 6.35659L25.7455 8.32775C26.2503 9.21913 26.4682 10.2407 26.3715 11.2563L30.3535 11.6353ZM28.2514 16.6088C29.4448 15.2037 30.179 13.4687 30.3535 11.6353L26.3715 11.2563C26.2749 12.272 25.8679 13.2361 25.2027 14.0194L28.2514 16.6088ZM23.681 19.5003C25.4632 19.0215 27.0582 18.0136 28.2514 16.6088L25.2027 14.0194C24.5373 14.8028 23.6448 15.3682 22.6432 15.6372L23.681 19.5003ZM18.272 19.2926C20.012 19.9066 21.8988 19.979 23.681 19.5003L22.6432 15.6372C21.6415 15.9063 20.5807 15.8655 19.6033 15.5206L18.272 19.2926ZM13.9389 16.0582C15.0196 17.5509 16.5319 18.6784 18.272 19.2926L19.6033 15.5206C18.6261 15.1757 17.7809 14.544 17.1789 13.7125L13.9389 16.0582ZM16.0061 12.0925L14.3861 13.2653L16.7317 16.5053L18.3517 15.3325L16.0061 12.0925ZM20.2689 13.6346C19.6732 13.4243 19.1615 13.0405 18.7989 12.5397L15.5589 14.8853C16.4002 16.0474 17.579 16.927 18.9377 17.4066L20.2689 13.6346ZM22.1243 13.7057C21.5128 13.87 20.865 13.845 20.2689 13.6346L18.9377 17.4066C20.2963 17.8861 21.7701 17.9427 23.1621 17.5687L22.1243 13.7057ZM23.6783 12.7246C23.2768 13.1974 22.7356 13.5415 22.1243 13.7057L23.1621 17.5687C24.554 17.1948 25.7978 16.4082 26.7271 15.3141L23.6783 12.7246ZM24.3805 11.0668C24.3228 11.6737 24.0795 12.2523 23.6783 12.7246L26.7271 15.3141C27.6564 14.2199 28.227 12.8704 28.3625 11.4458L24.3805 11.0668ZM24.0052 9.31332C24.3083 9.84865 24.4383 10.4601 24.3805 11.0668L28.3625 11.4458C28.4981 10.0213 28.1922 8.5896 27.4858 7.34217L24.0052 9.31332ZM22.6706 8.06753C23.2377 8.34124 23.7018 8.77755 24.0052 9.31332L27.4858 7.34217C26.7793 6.09476 25.706 5.09102 24.4092 4.46514L22.6706 8.06753Z" fill="#1A2C40" mask="url(#path-2-inside-1_1892_230724)"/>
<path d="M3.06191 29C2.76679 25.1932 3.23896 17.5797 11.0299 17.5797C18.8209 17.5797 19.5882 25.1932 18.9979 29" stroke="#1A2C40" stroke-width="2" stroke-linecap="round"/>
<path d="M16.6055 19.3546C17.7859 18.4762 19.2615 17.5976 21.9175 17.5976C22.0292 17.5976 29.0002 16.7192 29.0002 27.261" stroke="#1A2C40" stroke-width="2" stroke-linecap="round"/>
</svg>
