<svg width="32" height="32" viewBox="0 0 32 32" fill="none" xmlns="http://www.w3.org/2000/svg">
<path fill-rule="evenodd" clip-rule="evenodd" d="M9.63571 3.64809C5.58404 3.14216 2.23256 5.97647 2.23256 10.334C2.23256 12.1534 2.84876 14.1961 4.46354 15.9827L16 27.9236L27.5365 15.9827C29.1512 14.1961 29.7674 12.1534 29.7674 10.334C29.7674 5.97647 26.416 3.14216 22.3643 3.64809C21.5531 3.74938 20.5586 4.12767 19.5133 4.67663C18.4836 5.21738 17.478 5.88439 16.6616 6.49158C16.2681 6.78428 15.7319 6.78428 15.3384 6.49158C14.522 5.88439 13.5164 5.21738 12.4867 4.67663C11.4414 4.12767 10.4469 3.74938 9.63571 3.64809ZM0 10.334C0 4.59819 4.54835 0.739271 9.90946 1.4087C11.1051 1.55801 12.3744 2.07481 13.5161 2.67438C14.3998 3.13843 15.2527 3.67663 16 4.19772C16.7473 3.67663 17.6002 3.13843 18.4839 2.67438C19.6256 2.07481 20.8949 1.55801 22.0905 1.4087C27.4516 0.739271 32 4.59819 32 10.334C32 12.6823 31.1974 15.2859 29.1706 17.5203C29.1626 17.529 29.1546 17.5376 29.1464 17.546L16.7987 30.3267C16.5886 30.5441 16.3007 30.6667 16 30.6667C15.6993 30.6667 15.4114 30.5441 15.2013 30.3267L2.85357 17.546C2.8454 17.5376 2.83735 17.529 2.82944 17.5203C0.80263 15.2859 0 12.6823 0 10.334Z" fill="#1A2C40"/>
</svg>
