<svg width="62" height="62" viewBox="0 0 62 62" fill="none" xmlns="http://www.w3.org/2000/svg">
<path d="M44.2591 28.2014C41.6488 11.3299 36.441 4.39721 32.8973 7.55537C28.9502 11.0763 36.266 31.2834 36.266 31.2834" stroke="#1A2C40" stroke-width="1.90251" stroke-linecap="round" stroke-linejoin="round"/>
<path d="M46.2 32.0596C51.5271 23.0418 56.6258 23.1661 57.7039 25.4059C61.1943 32.6405 43.7826 47.6348 45.3959 51.1507C45.4563 51.2626 45.5304 51.3666 45.6166 51.4601" stroke="#1A2C40" stroke-width="1.90251" stroke-linecap="round" stroke-linejoin="round"/>
<path d="M18.4106 34.4264C11.1101 24.8479 7.33044 23.8611 5.09055 26.9102C2.46256 30.4869 14.116 49.0275 30.1174 55.9247" stroke="#1A2C40" stroke-width="1.90251" stroke-linecap="round" stroke-linejoin="round"/>
<path d="M29.2202 37.3918C30.9223 39.4212 33.1038 40.5957 35.0951 39.6343C40.9472 36.8084 33.9511 23.2524 28.4592 25.8982C27.4776 26.5137 26.7425 27.4536 26.3816 28.5545C26.0206 29.6555 26.0565 30.8481 26.4831 31.9253" stroke="#1A2C40" stroke-width="1.90251" stroke-linecap="round" stroke-linejoin="round"/>
<path d="M27.2365 43.4191C33.0962 40.5932 26.1026 27.0372 20.6132 29.683C14.7611 32.5088 21.7471 46.0648 27.2365 43.4191Z" stroke="#1A2C40" stroke-width="1.90251" stroke-linecap="round" stroke-linejoin="round"/>
</svg>
